<svg xmlns="http://www.w3.org/2000/svg" viewBox="0 0 900 900" role="img" aria-labelledby="title desc">
<title id="title">SK Imports Professional Logo</title>
<desc id="desc">Circular SK Imports logo with Pakistan and China crossed flags and registered mark.</desc>
<defs>
  <radialGradient id="bg" cx="50%" cy="38%" r="70%"><stop offset="0" stop-color="#0b2038"/><stop offset="0.55" stop-color="#061423"/><stop offset="1" stop-color="#020914"/></radialGradient>
  <linearGradient id="blue" x1="0" x2="1" y1="0" y2="1"><stop offset="0" stop-color="#00aeef"/><stop offset="0.55" stop-color="#1565c0"/><stop offset="1" stop-color="#003b8e"/></linearGradient>
  <linearGradient id="silver" x1="0" x2="1"><stop offset="0" stop-color="#ffffff"/><stop offset="0.45" stop-color="#d6dbe3"/><stop offset="1" stop-color="#ffffff"/></linearGradient>
  <filter id="softShadow"><feDropShadow dx="0" dy="12" stdDeviation="10" flood-color="#000" flood-opacity="0.38"/></filter>
</defs>
<rect width="900" height="900" fill="#020914"/>
<circle cx="450" cy="450" r="402" fill="url(#bg)" stroke="#575c62" stroke-width="18"/>
<circle cx="450" cy="450" r="360" fill="none" stroke="#0876d8" stroke-width="7"/>
<circle cx="450" cy="450" r="332" fill="none" stroke="#102945" stroke-width="2"/>
<g transform="translate(320 95)">
  <line x1="65" y1="135" x2="130" y2="28" stroke="#cbd2dc" stroke-width="10" stroke-linecap="round"/>
  <line x1="205" y1="135" x2="140" y2="28" stroke="#cbd2dc" stroke-width="10" stroke-linecap="round"/>
  <circle cx="130" cy="28" r="8" fill="#e7edf5"/><circle cx="140" cy="28" r="8" fill="#e7edf5"/>
</g>
<g transform="translate(255 118) rotate(-8)">
  <path d="M0 20 C55 -10 110 -4 165 24 L165 105 C112 77 55 73 0 96 Z" fill="#075b2a"/>
  <rect x="0" y="20" width="45" height="76" fill="#fff" opacity="0.96"/>
  <circle cx="91" cy="62" r="24" fill="#fff"/>
  <circle cx="101" cy="58" r="24" fill="#075b2a"/>
  <path d="M122 44 l6 14 15 1-12 10 4 15-13-8-13 8 4-15-12-10 15-1z" fill="#fff"/>
</g>
<g transform="translate(485 118) rotate(8)">
  <path d="M0 25 C58 -5 116 -7 180 22 L180 100 C116 76 58 80 0 110 Z" fill="#de1f26"/>
  <path d="M55 34 l10 24 26 2-20 16 7 26-23-14-23 14 7-26-20-16 26-2z" fill="#ffde00"/>
  <circle cx="115" cy="45" r="6" fill="#ffde00"/><circle cx="138" cy="58" r="6" fill="#ffde00"/><circle cx="121" cy="82" r="6" fill="#ffde00"/><circle cx="154" cy="38" r="6" fill="#ffde00"/>
</g>
<text x="450" y="415" text-anchor="middle" font-family="Poppins, Arial, sans-serif" font-size="255" font-weight="900" fill="url(#silver)" filter="url(#softShadow)">S</text>
<text x="565" y="415" text-anchor="middle" font-family="Poppins, Arial, sans-serif" font-size="255" font-weight="900" fill="url(#blue)" filter="url(#softShadow)">K</text>
<circle cx="718" cy="302" r="23" fill="none" stroke="#ef233c" stroke-width="5"/>
<text x="718" y="312" text-anchor="middle" font-family="Arial, sans-serif" font-size="28" font-weight="700" fill="#ef233c">R</text>
<text x="450" y="535" text-anchor="middle" font-family="Poppins, Arial, sans-serif" font-size="82" font-weight="800" letter-spacing="18" fill="url(#silver)">IMPORTS</text>
<line x1="135" y1="535" x2="185" y2="535" stroke="#0876d8" stroke-width="8"/><line x1="715" y1="535" x2="765" y2="535" stroke="#0876d8" stroke-width="8"/>
<text x="450" y="615" text-anchor="middle" font-family="Poppins, Arial, sans-serif" font-size="30" font-weight="500" letter-spacing="10" fill="#f7fbff">MOBILE ACCESSORIES &amp; ELECTRONIC GADGETS</text>
<line x1="365" y1="670" x2="535" y2="670" stroke="#0876d8" stroke-width="5"/>
<text x="450" y="735" text-anchor="middle" font-family="Poppins, Arial, sans-serif" font-size="24" font-weight="600" letter-spacing="3" fill="#f7fbff">DIRECT CHINA IMPORTS  |  WHOLESALE &amp; RETAIL  |  BEST PRICES</text>
</svg>
