<svg xmlns="http://www.w3.org/2000/svg" viewBox="0 0 1000 1000" role="img" aria-label="SK Imports Final Logo">
<defs>
<radialGradient id="bg" cx="50%" cy="42%" r="70%"><stop offset="0" stop-color="#0a1e35"/><stop offset="0.55" stop-color="#061321"/><stop offset="1" stop-color="#010713"/></radialGradient>
<linearGradient id="blue" x1="0" x2="1" y1="0" y2="1"><stop offset="0" stop-color="#0789ff"/><stop offset="0.55" stop-color="#006bd6"/><stop offset="1" stop-color="#004ca5"/></linearGradient>
<linearGradient id="silver" x1="0" x2="1"><stop offset="0" stop-color="#ffffff"/><stop offset="0.5" stop-color="#d4d8de"/><stop offset="1" stop-color="#ffffff"/></linearGradient>
<filter id="shadow"><feDropShadow dx="0" dy="15" stdDeviation="11" flood-color="#000" flood-opacity="0.44"/></filter>
</defs>
<rect width="1000" height="1000" fill="#020914"/>
<circle cx="500" cy="500" r="456" fill="url(#bg)" stroke="#5f6368" stroke-width="19"/>
<circle cx="500" cy="500" r="407" fill="none" stroke="#0876d8" stroke-width="8"/>

<g transform="translate(392 112)">
<line x1="74" y1="150" x2="146" y2="28" stroke="#d8dde5" stroke-width="10" stroke-linecap="round"/>
<line x1="224" y1="150" x2="154" y2="28" stroke="#d8dde5" stroke-width="10" stroke-linecap="round"/>
<circle cx="146" cy="28" r="8" fill="#eef3f9"/><circle cx="154" cy="28" r="8" fill="#eef3f9"/>
</g>
<g transform="translate(298 138) rotate(-7)">
<path d="M0 22 C65 -10 132 -4 198 28 L198 118 C132 86 66 82 0 108 Z" fill="#08652e"/>
<rect x="0" y="22" width="54" height="86" fill="#ffffff"/>
<circle cx="108" cy="70" r="25" fill="#ffffff"/>
<circle cx="119" cy="66" r="25" fill="#08652e"/>
<path d="M142 50 l7 16 18 1-14 11 5 18-16-10-16 10 5-18-14-11 18-1z" fill="#ffffff"/>
</g>
<g transform="translate(525 138) rotate(7)">
<path d="M0 30 C65 -2 132 -7 208 28 L208 116 C133 88 66 90 0 124 Z" fill="#de1f26"/>
<path d="M60 38 l11 26 29 2-22 18 8 28-26-16-25 16 8-28-22-18 28-2z" fill="#ffde00"/>
<circle cx="130" cy="50" r="7" fill="#ffde00"/><circle cx="156" cy="68" r="7" fill="#ffde00"/><circle cx="136" cy="94" r="7" fill="#ffde00"/><circle cx="176" cy="43" r="7" fill="#ffde00"/>
</g>

<text x="430" y="515" text-anchor="middle" font-family="Poppins,Arial,sans-serif" font-size="315" font-weight="900" fill="url(#silver)" filter="url(#shadow)">S</text>
<text x="625" y="515" text-anchor="middle" font-family="Poppins,Arial,sans-serif" font-size="315" font-weight="900" fill="url(#blue)" filter="url(#shadow)">K</text>
<circle cx="792" cy="340" r="24" fill="none" stroke="#ef233c" stroke-width="5"/>
<text x="792" y="350" text-anchor="middle" font-family="Arial,sans-serif" font-size="28" font-weight="800" fill="#ef233c">R</text>
<line x1="155" y1="610" x2="205" y2="610" stroke="#0876d8" stroke-width="8"/>
<line x1="795" y1="610" x2="845" y2="610" stroke="#0876d8" stroke-width="8"/>
<text x="500" y="635" text-anchor="middle" font-family="Poppins,Arial,sans-serif" font-size="92" font-weight="800" letter-spacing="18" fill="url(#silver)">IMPORTS</text>
<text x="500" y="708" text-anchor="middle" font-family="Poppins,Arial,sans-serif" font-size="31" font-weight="500" letter-spacing="8" fill="#f5fbff">MOBILE ACCESSORIES &amp; ELECTRONIC GADGETS</text>
<line x1="400" y1="760" x2="600" y2="760" stroke="#0876d8" stroke-width="5"/>
<text x="500" y="826" text-anchor="middle" font-family="Poppins,Arial,sans-serif" font-size="26" font-weight="600" letter-spacing="2" fill="#f5fbff">DIRECT CHINA IMPORTS  |  WHOLESALE &amp; RETAIL  |  BEST PRICES</text>
</svg>